# Blender v2.75 (sub 0) OBJ File: ''
# www.blender.org
mtllib cut ring.mtl
o Cylinder.001
v 0.000000 0.059893 -5.303247
v 0.000000 -0.514155 -5.303247
v 1.034612 -0.514155 -5.201346
v 1.034612 0.059893 -5.201346
v 0.000000 0.059893 -5.685235
v -1.109126 0.059893 -5.575996
v -2.175637 0.059893 -5.252476
v -3.158541 0.059893 -4.727105
v -4.020063 0.059893 -4.020073
v -4.727097 0.059893 -3.158553
v -5.252469 0.059893 -2.175651
v -5.575994 0.059893 -1.109140
v -5.685235 0.059893 -0.000005
v -5.303247 0.059893 -0.000005
v -5.201345 0.059893 -1.034618
v -4.899559 0.059893 -2.029470
v -4.409485 0.059893 -2.946331
v -3.749957 0.059893 -3.749967
v -2.946320 0.059893 -4.409492
v -2.029458 0.059893 -4.899564
v -1.034604 0.059893 -5.201348
v 2.029465 0.059893 -4.899561
v 2.946326 0.059893 -4.409489
v 3.749962 0.059893 -3.749962
v 4.409489 0.059893 -2.946326
v 4.899561 0.059893 -2.029465
v 5.201346 0.059893 -1.034612
v 5.303247 0.059893 -0.000000
v 5.575994 0.059893 -1.109135
v 5.252472 0.059893 -2.175645
v 4.727100 0.059893 -3.158547
v 4.020068 0.059893 -4.020068
v 3.158547 0.059893 -4.727100
v 2.175645 0.059893 -5.252472
v 1.109134 0.059893 -5.575994
v -1.034604 -0.514155 -5.201348
v -5.684950 -0.514155 0.002889
v -5.685235 -0.514155 -0.000005
v -5.575994 -0.514155 -1.109140
v -5.252469 -0.514155 -2.175651
v -4.727097 -0.514155 -3.158553
v -4.020063 -0.514155 -4.020073
v -3.158541 -0.514155 -4.727105
v -2.175637 -0.514155 -5.252476
v -1.109126 -0.514155 -5.575996
v -2.029458 -0.514155 -4.899564
v -2.946320 -0.514155 -4.409492
v -3.749957 -0.514155 -3.749967
v -4.409485 -0.514155 -2.946331
v -4.899559 -0.514155 -2.029470
v -5.201345 -0.514155 -1.034618
v -5.303247 -0.514155 -0.000005
v -5.302961 -0.514155 0.002889
v 2.029465 -0.514155 -4.899561
v 1.109134 -0.514155 -5.575994
v 0.000000 -0.514155 -5.685235
v -5.302961 0.059893 0.002889
v -5.684950 0.059893 0.002889
v 2.946326 -0.514155 -4.409489
v 3.749962 -0.514155 -3.749962
v 4.409489 -0.514155 -2.946326
v 4.899561 -0.514155 -2.029465
v 5.201346 -0.514155 -1.034612
v 5.303247 -0.514155 -0.000000
v 5.201347 0.059893 1.034612
v 4.899561 0.059893 2.029464
v 4.409489 0.059893 2.946326
v 3.749962 0.059893 3.749962
v 2.946326 0.059893 4.409489
v 2.029464 0.059893 4.899562
v 1.034611 0.059893 5.201347
v -0.000002 0.059893 5.303247
v -0.015794 0.059893 5.301692
v -0.015794 0.059893 5.683679
v -0.000002 0.059893 5.685235
v 1.109133 0.059893 5.575995
v 2.175644 0.059893 5.252473
v 3.158547 0.059893 4.727100
v 4.020068 0.059893 4.020068
v 4.727100 0.059893 3.158547
v 5.252472 0.059893 2.175644
v 5.575995 0.059893 1.109134
v 5.685235 0.059893 -0.000000
v 5.575994 -0.514155 -1.109135
v 5.252472 -0.514155 -2.175645
v 4.727100 -0.514155 -3.158547
v 4.020068 -0.514155 -4.020068
v 3.158547 -0.514155 -4.727100
v 2.175645 -0.514155 -5.252472
v 5.685235 -0.514155 -0.000000
v 5.575995 -0.514155 1.109134
v 5.252472 -0.514155 2.175644
v 4.727100 -0.514155 3.158547
v 4.020068 -0.514155 4.020068
v 3.158547 -0.514155 4.727100
v 2.175644 -0.514155 5.252473
v 1.109133 -0.514155 5.575995
v -0.000002 -0.514155 5.685235
v -0.000002 -0.514155 5.303247
v 1.034611 -0.514155 5.201347
v 2.029464 -0.514155 4.899562
v 2.946326 -0.514155 4.409489
v 3.749962 -0.514155 3.749962
v 4.409489 -0.514155 2.946326
v 4.899561 -0.514155 2.029464
v 5.201347 -0.514155 1.034612
v -0.015794 -0.514155 5.301692
v -0.015794 -0.514155 5.683679
vn -0.098000 0.000000 0.995200
vn 0.000000 1.000000 -0.000000
vn 0.098000 0.000000 0.995200
vn 0.000000 -1.000000 -0.000000
vn -0.290300 0.000000 0.956900
vn 0.098000 0.000000 -0.995200
vn -0.098000 0.000000 -0.995200
vn -0.290300 0.000000 -0.956900
vn -0.471400 0.000000 -0.881900
vn -0.634400 0.000000 -0.773000
vn -0.773000 0.000000 -0.634400
vn -0.881900 0.000000 -0.471400
vn -0.956900 0.000000 -0.290300
vn -0.995200 0.000000 -0.098000
vn 0.995200 0.000000 0.098000
vn 0.956900 0.000000 0.290300
vn 0.881900 0.000000 0.471400
vn 0.773000 0.000000 0.634400
vn 0.634400 0.000000 0.773000
vn 0.471400 0.000000 0.881900
vn 0.290300 0.000000 0.956900
vn -0.471400 0.000000 0.881900
vn -0.634400 0.000000 0.773000
vn -0.773000 0.000000 0.634400
vn -0.881900 0.000000 0.471400
vn -0.956900 0.000000 0.290300
vn -0.995200 0.000000 0.098000
vn 0.956900 0.000000 -0.290300
vn 0.881900 0.000000 -0.471400
vn 0.773000 0.000000 -0.634400
vn 0.634400 0.000000 -0.773000
vn 0.471400 0.000000 -0.881900
vn 0.290300 0.000000 -0.956900
vn 0.995200 0.000000 -0.098200
vn 0.995200 0.000000 -0.098000
vn 0.000000 0.000000 1.000000
vn -1.000000 0.000000 0.000000
usemtl None
s off
f 1//1 2//1 3//1 4//1
f 5//2 6//2 7//2 8//2 9//2 10//2 11//2 12//2 13//2 14//2 15//2 16//2 17//2 18//2 19//2 20//2 21//2 1//2 4//2 22//2 23//2 24//2 25//2 26//2 27//2 28//2 29//2 30//2 31//2 32//2 33//2 34//2 35//2
f 21//3 36//3 2//3 1//3
f 37//4 38//4 39//4 40//4 41//4 42//4 43//4 44//4 45//4 3//4 2//4 36//4 46//4 47//4 48//4 49//4 50//4 51//4 52//4 53//4
f 4//5 3//5 54//5 22//5
f 5//6 35//6 55//6 56//6
f 6//7 5//7 56//7 45//7
f 7//8 6//8 45//8 44//8
f 8//9 7//9 44//9 43//9
f 9//10 8//10 43//10 42//10
f 10//11 9//11 42//11 41//11
f 11//12 10//12 41//12 40//12
f 12//13 11//13 40//13 39//13
f 13//14 12//14 39//14 38//14
f 57//2 14//2 13//2 58//2
f 14//15 52//15 51//15 15//15
f 15//16 51//16 50//16 16//16
f 16//17 50//17 49//17 17//17
f 17//18 49//18 48//18 18//18
f 18//19 48//19 47//19 19//19
f 19//20 47//20 46//20 20//20
f 20//21 46//21 36//21 21//21
f 22//22 54//22 59//22 23//22
f 23//23 59//23 60//23 24//23
f 24//24 60//24 61//24 25//24
f 25//25 61//25 62//25 26//25
f 26//26 62//26 63//26 27//26
f 27//27 63//27 64//27 28//27
f 29//2 28//2 65//2 66//2 67//2 68//2 69//2 70//2 71//2 72//2 73//2 74//2 75//2 76//2 77//2 78//2 79//2 80//2 81//2 82//2 83//2
f 30//28 29//28 84//28 85//28
f 31//29 30//29 85//29 86//29
f 32//30 31//30 86//30 87//30
f 33//31 32//31 87//31 88//31
f 34//32 33//32 88//32 89//32
f 35//33 34//33 89//33 55//33
f 58//27 13//27 38//27 37//27
f 56//4 55//4 89//4 88//4 87//4 86//4 85//4 84//4 90//4 91//4 92//4 93//4 94//4 95//4 96//4 97//4 98//4 99//4 100//4 101//4 102//4 103//4 104//4 105//4 106//4 64//4 63//4 62//4 61//4 60//4 59//4 54//4 3//4 45//4
f 53//34 52//34 14//34 57//34
f 28//14 64//14 106//14 65//14
f 29//35 83//35 90//35 84//35
f 65//13 106//13 105//13 66//13
f 66//12 105//12 104//12 67//12
f 67//11 104//11 103//11 68//11
f 68//10 103//10 102//10 69//10
f 69//9 102//9 101//9 70//9
f 70//8 101//8 100//8 71//8
f 71//7 100//7 99//7 72//7
f 73//6 72//6 99//6 107//6
f 108//1 98//1 75//1 74//1
f 76//3 75//3 98//3 97//3
f 77//21 76//21 97//21 96//21
f 78//20 77//20 96//20 95//20
f 79//19 78//19 95//19 94//19
f 80//18 79//18 94//18 93//18
f 81//17 80//17 93//17 92//17
f 82//16 81//16 92//16 91//16
f 83//15 82//15 91//15 90//15
f 98//4 108//4 107//4 99//4
f 57//36 58//36 37//36 53//36
f 74//37 73//37 107//37 108//37
