# Blender v2.75 (sub 0) OBJ File: ''
# www.blender.org
mtllib flat ring.mtl
o Cylinder.001
v 0.000000 0.308607 -1.202870
v 0.000000 -0.265441 -1.202870
v 0.234668 -0.265441 -1.179757
v 0.234668 0.308607 -1.179757
v -0.234666 0.308607 -1.179757
v -0.234666 -0.265441 -1.179757
v 0.460318 -0.265441 -1.111307
v 0.460318 0.308607 -1.111307
v -0.460317 0.308607 -1.111308
v -0.460317 -0.265441 -1.111308
v 0.668279 -0.265441 -1.000150
v 0.668279 0.308607 -1.000150
v -0.668277 0.308607 -1.000151
v -0.668277 -0.265441 -1.000151
v 0.850557 -0.265441 -0.850557
v 0.850557 0.308607 -0.850557
v -0.850556 0.308607 -0.850559
v -0.850556 -0.265441 -0.850559
v 1.000150 -0.265441 -0.668279
v 1.000150 0.308607 -0.668279
v -1.000149 0.308607 -0.668280
v -1.000149 -0.265441 -0.668280
v 1.111307 -0.265441 -0.460318
v 1.111307 0.308607 -0.460318
v -1.111306 0.308607 -0.460320
v -1.111306 -0.265441 -0.460320
v 1.179757 -0.265441 -0.234668
v 1.179757 0.308607 -0.234668
v -1.179757 0.308607 -0.234669
v -1.179757 -0.265441 -0.234669
v 1.202870 -0.265441 -0.000000
v 1.202870 0.308607 -0.000000
v -1.202870 0.308607 -0.000001
v -1.202870 -0.265441 -0.000001
v 1.179757 -0.265441 0.234668
v 1.179757 0.308607 0.234668
v -1.179757 0.308607 0.234667
v -1.179757 -0.265441 0.234667
v 1.111307 -0.265441 0.460318
v 1.111307 0.308607 0.460318
v -1.111307 0.308607 0.460317
v -1.111307 -0.265441 0.460317
v 1.000150 -0.265441 0.668279
v 1.000150 0.308607 0.668279
v -1.000150 0.308607 0.668278
v -1.000150 -0.265441 0.668278
v 0.850557 -0.265441 0.850557
v 0.850557 0.308607 0.850557
v -0.850558 0.308607 0.850557
v -0.850558 -0.265441 0.850557
v 0.668279 -0.265441 1.000150
v 0.668279 0.308607 1.000150
v -0.668279 0.308607 1.000149
v -0.668279 -0.265441 1.000149
v 0.460318 -0.265441 1.111307
v 0.460318 0.308607 1.111307
v -0.460319 0.308607 1.111307
v -0.460319 -0.265441 1.111307
v 0.234668 -0.265441 1.179757
v 0.234668 0.308607 1.179757
v -0.234669 0.308607 1.179757
v -0.234669 -0.265441 1.179757
v -0.000000 -0.265441 1.202870
v -0.000000 0.308607 1.202870
v 0.000000 0.308607 -5.685235
v 1.109134 0.308607 -5.575994
v 1.109134 -0.265441 -5.575994
v 0.000000 -0.265441 -5.685235
v -1.109126 0.308607 -5.575996
v -2.175637 0.308607 -5.252476
v -3.158541 0.308607 -4.727105
v -4.020063 0.308607 -4.020073
v -4.727097 0.308607 -3.158553
v -5.252470 0.308607 -2.175651
v -5.575994 0.308607 -1.109140
v -5.685235 0.308607 -0.000005
v 5.252472 0.308607 -2.175645
v 4.727100 0.308607 -3.158547
v 4.020068 0.308607 -4.020068
v 3.158547 0.308607 -4.727100
v 2.175645 0.308607 -5.252472
v -5.575996 0.308607 1.109129
v -5.252474 0.308607 2.175641
v -4.727102 0.308607 3.158544
v -4.020071 0.308607 4.020066
v -3.158550 0.308607 4.727098
v -2.175648 0.308607 5.252471
v -1.109137 0.308607 5.575994
v -0.000002 0.308607 5.685235
v 1.109133 0.308607 5.575995
v 2.175644 0.308607 5.252473
v 3.158547 0.308607 4.727100
v 4.020068 0.308607 4.020068
v 4.727100 0.308607 3.158547
v 5.252472 0.308607 2.175644
v 5.575995 0.308607 1.109134
v 5.685235 0.308607 -0.000000
v 5.575994 0.308607 -1.109135
v -1.109126 -0.265441 -5.575996
v 2.175645 -0.265441 -5.252472
v 3.158547 -0.265441 -4.727100
v 4.020068 -0.265441 -4.020068
v 4.727100 -0.265441 -3.158547
v 5.252472 -0.265441 -2.175645
v 5.575994 -0.265441 -1.109135
v 5.685235 -0.265441 -0.000000
v 5.575995 -0.265441 1.109134
v 5.252472 -0.265441 2.175644
v 4.727100 -0.265441 3.158547
v 4.020068 -0.265441 4.020068
v 3.158547 -0.265441 4.727100
v 2.175644 -0.265441 5.252473
v 1.109133 -0.265441 5.575995
v -0.000002 -0.265441 5.685235
v -1.109137 -0.265441 5.575994
v -2.175648 -0.265441 5.252471
v -3.158550 -0.265441 4.727098
v -4.020071 -0.265441 4.020066
v -4.727102 -0.265441 3.158544
v -5.252474 -0.265441 2.175641
v -5.575996 -0.265441 1.109129
v -5.685235 -0.265441 -0.000005
v -5.575994 -0.265441 -1.109140
v -5.252470 -0.265441 -2.175651
v -4.727097 -0.265441 -3.158553
v -4.020063 -0.265441 -4.020073
v -3.158541 -0.265441 -4.727105
v -2.175637 -0.265441 -5.252476
vn -0.098000 0.000000 0.995200
vn 0.098000 0.000000 0.995200
vn -0.290300 0.000000 0.956900
vn 0.290300 0.000000 0.956900
vn -0.471400 0.000000 0.881900
vn 0.471400 0.000000 0.881900
vn -0.634400 0.000000 0.773000
vn 0.634400 0.000000 0.773000
vn -0.773000 0.000000 0.634400
vn 0.773000 0.000000 0.634400
vn -0.881900 0.000000 0.471400
vn 0.881900 0.000000 0.471400
vn -0.956900 0.000000 0.290300
vn 0.956900 0.000000 0.290300
vn -0.995200 0.000000 0.098000
vn 0.995200 0.000000 0.098000
vn -0.995200 0.000000 -0.098000
vn 0.995200 0.000000 -0.098000
vn -0.956900 0.000000 -0.290300
vn 0.956900 0.000000 -0.290300
vn -0.881900 0.000000 -0.471400
vn 0.881900 0.000000 -0.471400
vn -0.773000 0.000000 -0.634400
vn 0.773000 0.000000 -0.634400
vn -0.634400 0.000000 -0.773000
vn 0.634400 0.000000 -0.773000
vn -0.471400 0.000000 -0.881900
vn 0.471400 0.000000 -0.881900
vn -0.290300 0.000000 -0.956900
vn 0.290300 0.000000 -0.956900
vn -0.098000 0.000000 -0.995200
vn 0.098000 0.000000 -0.995200
vn 0.000000 1.000000 0.000000
vn 0.000000 -1.000000 -0.000000
usemtl None
s off
f 1//1 2//1 3//1 4//1
f 5//2 6//2 2//2 1//2
f 4//3 3//3 7//3 8//3
f 9//4 10//4 6//4 5//4
f 8//5 7//5 11//5 12//5
f 13//6 14//6 10//6 9//6
f 12//7 11//7 15//7 16//7
f 17//8 18//8 14//8 13//8
f 16//9 15//9 19//9 20//9
f 21//10 22//10 18//10 17//10
f 20//11 19//11 23//11 24//11
f 25//12 26//12 22//12 21//12
f 24//13 23//13 27//13 28//13
f 29//14 30//14 26//14 25//14
f 28//15 27//15 31//15 32//15
f 33//16 34//16 30//16 29//16
f 32//17 31//17 35//17 36//17
f 37//18 38//18 34//18 33//18
f 36//19 35//19 39//19 40//19
f 41//20 42//20 38//20 37//20
f 40//21 39//21 43//21 44//21
f 45//22 46//22 42//22 41//22
f 44//23 43//23 47//23 48//23
f 49//24 50//24 46//24 45//24
f 48//25 47//25 51//25 52//25
f 53//26 54//26 50//26 49//26
f 52//27 51//27 55//27 56//27
f 57//28 58//28 54//28 53//28
f 56//29 55//29 59//29 60//29
f 61//30 62//30 58//30 57//30
f 60//31 59//31 63//31 64//31
f 64//32 63//32 62//32 61//32
f 65//32 66//32 67//32 68//32
f 65//33 69//33 70//33 71//33 72//33 73//33 74//33 75//33 76//33 33//33 29//33 25//33 21//33 17//33 13//33 9//33 5//33 1//33 4//33 8//33 12//33 16//33 20//33 24//33 28//33 32//33 36//33 77//33 78//33 79//33 80//33 81//33 66//33
f 77//33 36//33 40//33 44//33 48//33 52//33 56//33 60//33 64//33 61//33 57//33 53//33 49//33 45//33 41//33 37//33 33//33 76//33 82//33 83//33 84//33 85//33 86//33 87//33 88//33 89//33 90//33 91//33 92//33 93//33 94//33 95//33 96//33 97//33 98//33
f 69//31 65//31 68//31 99//31
f 68//34 67//34 100//34 101//34 102//34 103//34 104//34 105//34 106//34 107//34 108//34 109//34 110//34 111//34 112//34 113//34 114//34 63//34 59//34 55//34 51//34 47//34 43//34 39//34 35//34 31//34 27//34 23//34 19//34 15//34 11//34 7//34 3//34 99//34
f 114//34 115//34 116//34 117//34 118//34 119//34 120//34 121//34 122//34 123//34 124//34 125//34 126//34 127//34 128//34 99//34 3//34 2//34 6//34 10//34 14//34 18//34 22//34 26//34 30//34 34//34 38//34 42//34 46//34 50//34 54//34 58//34 62//34 63//34
f 66//30 81//30 100//30 67//30
f 81//28 80//28 101//28 100//28
f 80//26 79//26 102//26 101//26
f 79//24 78//24 103//24 102//24
f 78//22 77//22 104//22 103//22
f 77//20 98//20 105//20 104//20
f 98//18 97//18 106//18 105//18
f 97//16 96//16 107//16 106//16
f 96//14 95//14 108//14 107//14
f 95//12 94//12 109//12 108//12
f 94//10 93//10 110//10 109//10
f 93//8 92//8 111//8 110//8
f 92//6 91//6 112//6 111//6
f 91//4 90//4 113//4 112//4
f 90//2 89//2 114//2 113//2
f 89//1 88//1 115//1 114//1
f 88//3 87//3 116//3 115//3
f 87//5 86//5 117//5 116//5
f 86//7 85//7 118//7 117//7
f 85//9 84//9 119//9 118//9
f 84//11 83//11 120//11 119//11
f 83//13 82//13 121//13 120//13
f 82//15 76//15 122//15 121//15
f 76//17 75//17 123//17 122//17
f 75//19 74//19 124//19 123//19
f 74//21 73//21 125//21 124//21
f 73//23 72//23 126//23 125//23
f 72//25 71//25 127//25 126//25
f 71//27 70//27 128//27 127//27
f 70//29 69//29 99//29 128//29
